<?xml version="1.0" encoding="UTF-8" standalone="no"?>
<svg version="1.1" viewBox="0 0 637.43203 637.43203"
	xmlns="http://www.w3.org/2000/svg">
	<path fill="currentColor"
		stroke-width="1.00157"
		d="M 328.00391,1.1009908e-4 C 326.37516,0.0292501 320.13328,3.0714101 313.52734,7.0919071 306.48103,11.380447 295.25431,19.690089 288.58008,25.556751 c -6.67423,5.866669 -17.19377,16.666668 -23.37695,24 -6.18319,7.333337 -14.29369,17.832032 -18.02344,23.332032 -3.72974,5.49999 -10.14473,16.6013 -14.25586,24.66797 -4.11113,8.066667 -8.44067,17.216867 -9.62109,20.333977 -1.18043,3.11711 -2.94444,5.88534 -3.91993,6.15235 -0.97548,0.26701 -6.57279,1.81281 -12.43945,3.43554 -5.86667,1.62274 -15.04262,4.77148 -20.39062,6.9961 -5.348,2.22462 -16.05573,7.84797 -23.79493,12.49609 -7.7392,4.64813 -18.9639,12.1897 -24.94336,16.75977 -5.97947,4.57006 -14.77041,11.63863 -19.5371,15.70703 -4.76666,4.06839 -12.79439,11.30985 -17.83789,16.09179 -5.043514,4.78194 -13.168684,13.49271 -18.056644,19.35938 -4.88795,5.86666 -12.32921,15.10138 -16.53515,20.51953 -4.20594,5.41815 -7.38862,10.10943 -7.07227,10.42578 0.31634,0.31634 3.03161,-0.67769 6.03321,-2.20898 3.00157,-1.53129 11.60941,-4.21746 19.1289,-5.96875 7.51948,-1.7513 15.62253,-3.52451 18.005864,-3.94141 2.38334,-0.41692 4.33398,-0.40183 4.33398,0.0352 0,0.43698 -6.750004,7.80737 -15.000004,16.3789 -9.16864,9.52597 -19.32059,21.92556 -26.11328,31.89258 -6.11211,8.96839 -14.30868,22.73118 -18.21484,30.58594 -3.90616,7.85477 -8.92189,19.48107 -11.14453,25.83594 -2.22264,6.35487 -5.08756,16.25487 -6.36719,22 -1.74138,7.81822 -2.31404,16.31514 -2.27734,33.77929 0.02694,12.83333 0.62127,24.73871 1.32226,26.45508 l 1.27539,3.11914 6.94532,-9.13476 c 3.81968,-5.02432 9.78686,-11.57408 13.25976,-14.55469 3.47291,-2.98062 8.02218,-6.53069 10.11133,-7.89063 l 3.79883,-2.47265 -1.13086,9.23828 c -0.62249,5.08183 -1.11033,18.24023 -1.08203,29.24023 0.02827,11 0.8505,24.20066 1.82617,29.33399 0.97566,5.13333 3.78542,15.63803 6.24414,23.34375 2.45871,7.70573 7.16498,19.29253 10.45898,25.74804 3.294,6.4555 8.85562,16.05017 12.35938,21.32227 3.50377,5.2721 10.623734,14.68463 15.820314,20.91797 5.19658,6.23333 14.41875,16.0015 20.49413,21.70508 6.07539,5.70358 17.72886,14.79942 25.89649,20.21289 8.16762,5.41348 22.53005,13.86596 31.91797,18.7832 9.38792,4.91725 17.27787,8.72077 17.5332,8.45313 0.25532,-0.26763 -0.41612,-7.68633 -1.49219,-16.48633 -1.21919,-9.97019 -1.69252,-21.58158 -1.25781,-30.81055 0.38368,-8.14576 1.70117,-19.22248 2.92773,-24.61523 1.22655,-5.39276 3.90401,-13.91771 5.94922,-18.94336 2.0452,-5.02565 5.71806,-12.48067 8.16211,-16.56641 2.44405,-4.08573 6.96909,-10.19665 10.05664,-13.58008 l 5.61328,-6.15234 0.0645,8.66797 c 0.0347,4.76666 0.68543,12.50787 1.44726,17.20312 0.76183,4.69526 3.16512,13.14981 5.33985,18.78906 2.17473,5.63928 7.54763,15.71142 11.9414,22.38086 4.39377,6.66943 12.84813,17.25909 18.78711,23.53321 5.93897,6.27411 15.98631,15.51796 22.32813,20.54101 6.34182,5.02305 16.03125,12.13808 21.53125,15.8125 5.5,3.67442 14.20065,8.96392 19.33398,11.75391 5.13333,2.78999 10.52934,5.88689 11.99219,6.88281 1.46285,0.99591 2.83778,1.27966 3.05469,0.62891 0.21692,-0.65076 -1.48021,-5.90392 -3.77149,-11.67188 -2.29128,-5.76796 -5.57657,-16.7945 -7.30078,-24.5039 -1.72421,-7.7094 -3.85654,-20.31759 -4.73828,-28.01758 -0.94962,-8.29286 -1.26689,-20.26766 -0.7793,-29.37695 0.45274,-8.45806 1.74173,-20.22382 2.86524,-26.14649 1.12351,-5.92268 3.4507,-14.90249 5.17187,-19.95508 1.72118,-5.05259 5.54931,-13.98685 8.50781,-19.85351 2.95849,-5.86667 9.01136,-15.73893 13.44922,-21.9375 4.43785,-6.19857 11.85093,-15.15068 16.47461,-19.89453 4.62369,-4.74385 12.90625,-12.22841 18.40625,-16.63086 5.5,-4.40245 16.27029,-12.09839 23.93164,-17.10352 7.66134,-5.00514 15.06022,-9.10156 16.44336,-9.10156 1.38314,0 7.41546,1.24662 13.4043,2.76953 5.98885,1.52291 22.48261,6.37289 36.65234,10.77734 17.2221,5.35323 28.09136,8.02812 32.78711,8.07032 3.8635,0.0347 9.36957,-0.69693 12.23633,-1.62696 2.86677,-0.93003 9.41159,-3.78345 14.54492,-6.34179 5.13333,-2.55834 13.61514,-7.60382 18.84766,-11.21094 5.23252,-3.60713 13.10621,-10.2995 17.49609,-14.87109 4.38989,-4.57161 9.58522,-11.47452 11.54492,-15.3418 1.9597,-3.86727 4.17734,-10.45122 4.92774,-14.62891 0.7505,-4.1777 2.74369,-12.0957 4.42969,-17.5957 1.6859,-5.5 3.444,-11.60202 3.9082,-13.56055 l 0.84375,-3.56054 -4.33203,-0.9336 c -2.3827,-0.51312 -6.12376,-1.84825 -8.31446,-2.96875 -2.19072,-1.1205 -10.89133,-7.24383 -19.33398,-13.60547 -8.44265,-6.36165 -20.91376,-15.29704 -27.71484,-19.85742 -6.80107,-4.56038 -18.80238,-11.66678 -26.66797,-15.79102 -7.86559,-4.12422 -14.39413,-7.54777 -14.50977,-7.60937 -0.11564,-0.0616 -0.89093,-7.01198 -1.7207,-15.44531 -1.18834,-12.07765 -2.34511,-17.13244 -5.44922,-23.80274 -2.61393,-5.61696 -7.19694,-11.83253 -13.61328,-18.45898 -5.32044,-5.49467 -15.97383,-14.64565 -23.67383,-20.33594 -7.7,-5.69029 -19.44276,-13.43923 -26.09375,-17.2207 l -12.0918,-6.875 -2.21875,-9.6543 c -1.21988,-5.3093 -2.7774,-13.55364 -3.46289,-18.32031 -0.68549,-4.76666 -1.97792,-18.58119 -2.87109,-30.699217 -0.89318,-12.11802 -1.36386,-24.26803 -1.04492,-27 0.34754,-2.97693 0.02,-4.9303 -0.81836,-4.875 -0.76942,0.0508 -6.75374,6.20209 -13.29883,13.66797 -6.54509,7.46588 -17.23225,19.18553 -23.75,26.044917 -6.51775,6.85938 -12.14875,12.17548 -12.51172,11.8125 -0.36297,-0.36297 -1.47501,-6.87625 -2.47265,-14.472657 -0.99767,-7.59641 -3.37839,-20.11054 -5.28907,-27.81054 -1.91068,-7.7 -5.93726,-20.300002 -8.94922,-28.000002 -3.01196,-7.700002 -8.71669,-20.475886 -12.67578,-28.390626 -3.95909,-7.9147399 -8.06601,-14.7237289 -9.12695,-15.1308589 -0.0663,-0.02544 -0.15509,-0.0371 -0.26367,-0.0351600009 z M 322.60742,25.695422 c 0.53994,0.01236 0.90217,0.24745 1.1836,0.667969 0.68436,1.02258 2.7204,4.305162 4.52343,7.294922 1.80302,2.98976 5.72779,11.30118 8.72266,18.46875 2.99488,7.16756 7.02285,19.72048 8.95117,27.89648 l 3.50586,14.86524 0.0586,23.533197 0.0566,23.53321 9.6914,2.13085 c 5.32984,1.17195 19.39105,5.74176 31.24805,10.15625 11.857,4.41449 26.61696,10.71821 32.80078,14.00782 6.18382,3.28961 17.16689,9.86218 24.40625,14.60547 7.23936,4.74329 17.65378,13.04287 23.14258,18.44335 7.27913,7.162 11.16131,12.31472 14.3457,19.03907 l 4.36524,9.21875 v 12 c 0,6.6 -0.47732,14.25 -1.06055,17 -0.79673,3.7567 -0.62994,5 0.67187,5 0.95297,0 11.18017,5.08616 22.72657,11.30273 11.5464,6.21658 27.14492,15.44539 34.66211,20.50781 7.5172,5.06242 18.46731,12.93501 24.33398,17.4961 5.86666,4.56109 12.88641,9.42898 15.59961,10.81836 l 4.93359,2.52734 -1.375,3.94141 c -0.75572,2.16786 -3.66351,6.54434 -6.46289,9.72461 -2.79938,3.18026 -7.25114,6.94467 -9.89257,8.36718 -2.64144,1.4225 -4.80274,2.99789 -4.80274,3.5 0,0.50212 2.26234,1.29457 5.02734,1.76172 2.765,0.46714 5.82731,1.34321 6.80469,1.94727 1.33312,0.82391 1.42178,1.76098 0.35938,3.74609 -0.7789,1.45538 -6.15212,7.08075 -11.94141,12.50196 -5.78929,5.42121 -14.66318,12.30796 -19.7207,15.30468 -5.05753,2.99672 -13.19811,7.04672 -18.08985,9 -4.89174,1.95328 -10.93395,3.55274 -13.42578,3.55274 -2.49182,0 -7.78838,-0.95788 -11.77148,-2.12696 -3.9831,-1.16907 -16.49616,-5.40383 -27.80664,-9.4121 -11.31047,-4.0083 -29.01113,-9.33082 -39.33399,-11.82618 -10.32286,-2.49535 -25.06953,-5.42154 -32.76953,-6.5039 -7.7,-1.08237 -21.2,-2.34939 -30,-2.81446 -8.8,-0.46507 -24.00751,-0.21023 -33.79492,0.56446 -9.78742,0.77469 -25.24578,2.70961 -34.35156,4.30078 -9.10577,1.59118 -16.92658,2.52069 -17.38086,2.0664 -0.45429,-0.45428 2.90884,-5.0378 7.47265,-10.18554 4.56382,-5.14774 11.99279,-12.29431 16.50977,-15.88282 4.51699,-3.58849 12.50169,-8.70776 17.74414,-11.375 5.24246,-2.66721 13.93535,-5.9307 19.31836,-7.2539 8.2138,-2.01905 9.25417,-2.56794 6.46875,-3.40625 -1.82546,-0.5494 -13.56439,-1.33614 -26.08594,-1.74805 -13.94286,-0.45867 -27.89538,-0.14377 -36,0.81055 -7.27845,0.85703 -18.63955,2.68583 -25.24804,4.06445 -6.60849,1.37862 -18.90915,4.71325 -27.33399,7.41016 -8.42485,2.69691 -21.9177,8.08579 -29.98437,11.97656 -8.06666,3.89077 -19.46732,10.2092 -25.33399,14.04102 -5.86666,3.83182 -15.46536,11.03697 -21.33203,16.00976 -5.86667,4.97279 -12.12256,10.59805 -13.90039,12.5 -1.77783,1.90195 -3.79335,3.45703 -4.48047,3.45703 -0.71661,0 -0.86211,-2.13194 -0.33984,-5 0.50078,-2.75 2.65383,-10.24027 4.7832,-16.64453 2.12936,-6.40425 6.59804,-17.12399 9.93164,-23.82226 3.3336,-6.69827 9.19867,-16.73412 13.0332,-22.30274 3.83454,-5.56863 13.60097,-16.8033 21.70313,-24.96484 11.14147,-11.22312 19.13925,-17.76055 32.82227,-26.82617 9.95035,-6.59258 21.6214,-13.38215 25.93554,-15.08789 4.31414,-1.70574 8.41467,-3.60758 9.11133,-4.22657 0.73906,-0.65665 0.10368,-1.125 -1.52539,-1.125 -1.53563,0 -8.82165,0.61872 -16.19141,1.375 -7.36975,0.75628 -20.81845,3.4092 -29.88672,5.89453 -9.06828,2.48534 -21.69105,6.92209 -28.04882,9.85938 -6.35777,2.9373 -16.19118,8.53504 -21.85352,12.43945 -5.66234,3.90442 -15.63763,12.38624 -22.16601,18.84961 -6.52842,6.46337 -11.64211,11.97899 -11.36524,12.25586 0.27686,0.27687 4.08872,-1.26792 8.4707,-3.43164 4.38198,-2.16371 12.14178,-4.80219 17.2461,-5.86328 5.10431,-1.06109 9.5138,-1.6952 9.79883,-1.41016 0.28503,0.28503 -3.39256,6.4079 -8.17383,13.60742 -4.78126,7.19955 -11.08368,17.58985 -14.00586,23.08985 -2.92217,5.5 -7.43115,15.71985 -10.01953,22.71094 -2.58838,6.99108 -5.98633,18.69108 -7.55078,26 -1.98856,9.29029 -3.05083,20.11077 -3.53124,35.95703 -0.37796,12.46667 -0.16257,25.06146 0.48045,27.98828 l 1.16993,5.32031 4.05664,-8.6543 c 2.2312,-4.76014 8.06927,-13.9698 12.97265,-20.46484 4.90338,-6.49503 13.49935,-16.84562 19.10352,-23.00195 5.60417,-6.15633 14.74158,-14.69187 20.30469,-18.96875 5.56312,-4.27688 14.62358,-10.79955 20.13476,-14.49414 5.51118,-3.6946 15.50863,-9.4747 22.2168,-12.84375 6.70818,-3.36905 19.14817,-8.52149 27.64453,-11.45118 8.49636,-2.92966 20.31504,-6.25047 26.26367,-7.3789 5.94862,-1.12844 12.47667,-2.05078 14.50586,-2.05078 h 3.68945 l -15.54882,15.66601 c -8.89885,8.96615 -19.10911,20.91956 -23.87305,27.94727 -4.57826,6.75379 -9.80326,15.45249 -11.60938,19.33203 -1.80612,3.87955 -3.28987,7.8033 -3.29687,8.71875 -0.007,0.91545 2.9767,-0.48162 6.62891,-3.10547 3.6522,-2.62385 11.60155,-6.78874 17.66601,-9.25391 6.06446,-2.46512 16.41767,-6.03845 23.00781,-7.9414 6.59013,-1.90295 17.09079,-4.3939 23.33399,-5.53516 6.24319,-1.14126 21.6427,-2.39985 34.2207,-2.79687 13.45054,-0.42457 31.02201,-0.0421 42.66602,0.92773 10.88866,0.90692 20.63083,2.10585 21.64843,2.66602 1.34018,0.73773 -0.31372,2.60598 -6,6.77734 -4.3176,3.16732 -13.56968,10.37223 -20.56054,16.00977 -6.99087,5.63754 -17.1287,14.97578 -22.52735,20.75195 -5.39865,5.77616 -12.78407,14.70261 -16.41211,19.83594 -3.62805,5.13333 -8.86545,13.83203 -11.63867,19.33203 -2.77322,5.5 -6.60499,14.35181 -8.51562,19.66992 -1.91064,5.31811 -4.83672,14.61747 -6.50196,20.66602 l -3.02734,10.99804 0.0977,32 c 0.0536,17.6 0.7487,35.6 1.54492,40 0.79622,4.4 1.05154,8.41576 0.56836,8.92383 -0.48318,0.50808 -3.87826,-1.21192 -7.54492,-3.82226 -3.66667,-2.61034 -11.98648,-9.92675 -18.48828,-16.25782 -6.50183,-6.33106 -15.41218,-16.2943 -19.80079,-22.14062 -4.38861,-5.84633 -10.325,-15.29705 -13.19336,-21.00196 -2.86837,-5.7049 -6.09932,-14.121 -7.17968,-18.70312 -1.08036,-4.58212 -1.97358,-12.85551 -1.98438,-18.38477 -0.0108,-5.52926 0.91106,-13.62926 2.04883,-18 1.13777,-4.37074 4.09839,-12.14596 6.57812,-17.27929 2.47973,-5.13333 7.9003,-13.43132 12.04688,-18.43946 4.14658,-5.00814 7.2494,-9.39708 6.89453,-9.75195 -0.35486,-0.35486 -5.65732,1.87456 -11.7832,4.95313 -6.12588,3.07856 -14.43933,7.84985 -18.47266,10.60351 -4.03334,2.75366 -11.88653,9.72417 -17.45312,15.48828 -5.56659,5.76412 -13.83955,15.51088 -18.38282,21.66016 -4.54326,6.14928 -10.57872,16.04928 -13.41211,22 -2.83337,5.95072 -6.66999,15.91901 -8.52734,22.15234 -1.85734,6.23333 -4.01802,15.64808 -4.80078,20.92188 -0.78277,5.27381 -1.42383,15.68793 -1.42383,23.14258 0,11.71723 -0.2806,13.44609 -2.07422,12.75781 -1.14113,-0.43789 -7.89113,-4.67295 -15,-9.41211 -7.10887,-4.73915 -18.31379,-13.31349 -24.90039,-19.05469 -6.5866,-5.7412 -16.36738,-15.52026 -21.73436,-21.73047 -5.36699,-6.21021 -11.9597,-14.59167 -14.65039,-18.625 -2.6907,-4.03333 -8.022414,-13.33268 -11.849614,-20.66601 -3.8272,-7.33334 -8.77363,-18.75805 -10.99219,-25.38672 -2.21855,-6.62868 -5.01977,-17.72802 -6.22461,-24.66602 -1.6409,-9.44894 -2.02153,-17.46558 -1.51367,-31.94726 0.46934,-13.38348 1.55334,-22.80409 3.52148,-30.60938 1.56371,-6.2014 5.52984,-16.94524 8.8125,-23.875 3.28266,-6.92977 5.79405,-12.77235 5.58203,-12.98437 -0.24174,-0.20011 -4.37534,1.00825 -9.20898,2.69726 -4.8526,1.69563 -12.33385,5.07133 -16.62695,7.50196 -4.29311,2.43062 -9.906,5.92756 -12.47266,7.76953 -2.56667,1.84197 -6.31129,4.83865 -8.32031,6.66015 -2.00902,1.8215 -4.07804,2.88682 -4.59766,2.36719 -0.51963,-0.51963 -0.25133,-4.97543 0.59571,-9.90234 0.84701,-4.92691 3.09914,-14.35899 5.0039,-20.95899 1.90477,-6.6 5.50403,-16.74425 8,-22.54297 2.49596,-5.79873 7.41351,-15.30838 10.92774,-21.13281 3.51422,-5.82444 11.22192,-16.67953 17.12695,-24.12305 5.90503,-7.4435 16.405684,-18.75672 23.333984,-25.14062 6.9283,-6.38391 16.6946,-14.86554 21.70312,-18.84766 5.00853,-3.98211 14.00853,-10.02494 20,-13.42773 5.99147,-3.4028 13.74323,-7.21153 17.22656,-8.46484 3.48333,-1.25331 6.33203,-2.65606 6.33203,-3.11719 0,-0.46113 -6.32412,-1.26341 -14.05469,-1.78125 -7.73056,-0.51785 -21.07991,-0.53059 -29.66601,-0.0293 l -15.61132,0.91211 6.66602,-6.93164 c 3.66667,-3.81178 11.19943,-10.73301 16.73827,-15.38086 5.53885,-4.64784 16.7906,-12.99299 25.00586,-18.54492 8.21525,-5.55194 20.36646,-12.82175 27.00195,-16.1543 6.63549,-3.33254 17.37022,-7.83701 23.85547,-10.00976 6.48525,-2.17276 13.88073,-3.94922 16.43359,-3.94922 3.84612,0 4.87319,-0.62968 5.9961,-3.66797 0.74533,-2.01667 3.27724,-8.76666 5.625,-15 2.34777,-6.23333 7.96011,-17.8676 12.47265,-25.855467 4.51254,-7.98786 13.45204,-20.82786 19.86524,-28.5332 6.41319,-7.70534 15.71254,-17.546234 20.66601,-21.869144 4.95347,-4.32291 13.11798,-10.62102 18.14258,-13.99414 5.28053,-3.544947 7.81547,-4.973 9.19531,-4.941407 z M 316.125,62.380973 c -0.90376,0.0363 -6.26163,4.91049 -12.31055,11.23046 -6.3464,6.63082 -14.50078,16.49142 -18.12109,21.91211 -3.62032,5.420687 -9.17053,15.627387 -12.33398,22.681647 -3.16344,7.05425 -6.93831,18.19494 -8.38868,24.75585 -1.45037,6.56091 -2.65011,15.00339 -2.66601,18.76172 -0.0159,3.75834 0.37448,8.84896 0.86719,11.3125 0.49271,2.46354 1.07424,3.88789 1.29101,3.16602 0.21678,-0.72188 1.58843,-6.86972 3.04883,-13.66406 1.4604,-6.79433 4.98968,-17.33731 7.84375,-23.42774 2.85408,-6.09044 7.67424,-15.32778 10.71094,-20.52734 3.03671,-5.19956 8.58577,-12.80725 12.33203,-16.90625 3.74625,-4.098997 7.5589,-7.453127 8.47266,-7.453127 1.204,0 1.89865,5.0474 2.52148,18.333987 0.47267,10.08333 1.50005,21.03203 2.2832,24.33203 0.78316,3.3 2.971,9.4513 4.86133,13.66797 1.89034,4.21666 3.88583,7.66601 4.43359,7.66601 0.54775,0 1.4188,-3.96309 1.9375,-8.80664 0.51867,-4.84355 0.53641,-20.59355 0.0391,-35 -0.57397,-16.626287 -1.80693,-30.750937 -3.37696,-38.671867 -1.36042,-6.86338 -2.86659,-12.86403 -3.3457,-13.33399 -0.0225,-0.022 -0.0552,-0.0311 -0.0996,-0.0293 z m 87.20313,37.17578 c 0.69855,0 1.63429,4.648697 2.07812,10.332027 0.44382,5.68334 1.19896,15.88464 1.67774,22.66797 0.48458,6.86528 0.34964,12.3239 -0.30274,12.3125 -0.64459,-0.0112 -2.07187,-0.5986 -3.17187,-1.30469 -1.1,-0.70609 -8.14936,-3.76296 -15.66602,-6.79297 -7.51667,-3.03001 -13.66797,-6.00803 -13.66797,-6.61719 0,-0.60916 3.57333,-5.5472 7.93945,-10.97461 4.36613,-5.42741 10.61667,-12.06333 13.89063,-14.74609 3.27395,-2.68276 6.5241,-4.876947 7.22266,-4.876947 z m 7.07812,128.222647 c -3.18819,-0.007 -6.41185,0.27693 -10.35742,0.85157 -5.74139,0.83618 -15.08391,2.80465 -20.75977,4.37304 -5.67586,1.5684 -9.99036,3.38395 -9.58789,4.03516 0.40247,0.65122 2.13485,1.18359 3.84766,1.18359 1.7128,0 7.22666,1.26713 12.25391,2.81641 5.02724,1.54929 11.53932,4.02608 14.47265,5.50391 2.93333,1.47783 10.43464,6.37929 16.66797,10.89257 6.23334,4.51328 12.83269,8.89694 14.66602,9.74024 2.00263,0.92118 11.2153,1.56887 23.07812,1.62304 12.84613,0.0587 19.45799,-0.37473 18.92188,-1.24218 -0.45323,-0.73333 -1.83808,-1.34066 -3.07813,-1.34766 -1.24006,-0.007 -5.30284,-1.43173 -9.02734,-3.16601 -3.7245,-1.73429 -8.05797,-4.78946 -9.63086,-6.78907 -1.57289,-1.99961 -3.24269,-5.82439 -3.71094,-8.5 -0.46825,-2.6756 -1.60793,-6.07738 -2.5332,-7.56054 -0.92528,-1.48315 -4.68318,-4.33066 -8.34961,-6.32618 -3.90782,-2.1269 -10.82953,-4.27431 -16.72852,-5.1914 -3.80346,-0.59131 -6.95634,-0.88963 -10.14453,-0.89649 z"
	/>
</svg>
